<svg width="47" height="47" viewBox="0 0 47 47" fill="none" xmlns="http://www.w3.org/2000/svg">
<path d="M7.23908 11.3865L15.3391 23.5M15.3391 23.5L7.23908 35.6135M15.3391 23.5L23.4269 11.3865M15.3391 23.5L23.4269 35.6135M39.7607 11.3865V35.6135M43.5676 1H3.43243C2.78731 1 2.16861 1.25627 1.71244 1.71244C1.25627 2.16861 1 2.78731 1 3.43243V43.5676C1 44.2127 1.25627 44.8314 1.71244 45.2876C2.16861 45.7437 2.78731 46 3.43243 46H43.5676C44.2127 46 44.8314 45.7437 45.2876 45.2876C45.7437 44.8314 46 44.2127 46 43.5676V3.43243C46 2.78731 45.7437 2.16861 45.2876 1.71244C44.8314 1.25627 44.2127 1 43.5676 1ZM33.704 35.6136C30.3589 35.6136 27.6472 32.9019 27.6472 29.5568V25.9203C27.6472 22.5753 30.3589 19.8636 33.704 19.8636C37.049 19.8636 39.7607 22.5753 39.7607 25.9203V29.5568C39.7607 32.9019 37.049 35.6136 33.704 35.6136Z" stroke="#99BB80" stroke-width="2" stroke-linecap="round" stroke-linejoin="round"/>
</svg>
