<svg width="50" height="41" viewBox="0 0 50 41" fill="none" xmlns="http://www.w3.org/2000/svg">
<path d="M1 20.2C2.27304 20.2 3.49394 19.6943 4.39411 18.7941C5.29429 17.8939 5.8 16.673 5.8 15.4V5.8C5.8 4.52696 6.30571 3.30606 7.20589 2.40589C8.10606 1.50571 9.32696 1 10.6 1H39.4C40.673 1 41.8939 1.50571 42.7941 2.40589C43.6943 3.30606 44.2 4.52696 44.2 5.8V15.4C44.2 16.673 44.7057 17.8939 45.6059 18.7941C46.5061 19.6943 47.727 20.2 49 20.2M1 20.2C2.27304 20.2 3.49394 20.7057 4.39411 21.6059C5.29429 22.5061 5.8 23.727 5.8 25V34.6C5.8 35.873 6.30571 37.0939 7.20589 37.9941C8.10606 38.8943 9.32696 39.4 10.6 39.4H39.4C40.673 39.4 41.8939 38.8943 42.7941 37.9941C43.6943 37.0939 44.2 35.873 44.2 34.6V25C44.2 23.727 44.7057 22.5061 45.6059 21.6059C46.5061 20.7057 47.727 20.2 49 20.2" stroke="#99BB80" stroke-width="2" stroke-linecap="round" stroke-linejoin="round"/>
<path d="M17.8 29.8V10.6H26.2C27.473 10.6 28.6939 11.1057 29.5941 12.0059C30.4943 12.9061 31 14.127 31 15.4C31 16.673 30.4943 17.8939 29.5941 18.7941C28.6939 19.6943 27.473 20.2 26.2 20.2H17.8H27.4C28.673 20.2 29.8939 20.7057 30.7941 21.6059C31.6943 22.5061 32.2 23.727 32.2 25C32.2 26.273 31.6943 27.4939 30.7941 28.3941C29.8939 29.2943 28.673 29.8 27.4 29.8H17.8Z" stroke="#99BB80" stroke-width="2" stroke-linecap="round" stroke-linejoin="round"/>
</svg>
