<svg width="24" height="24" viewBox="0 0 24 24" fill="none" xmlns="http://www.w3.org/2000/svg">
<g clip-path="url(#clip0_189_382)">
<path d="M12.4818 2C18.2265 2 22.8832 6.477 22.8832 12C22.8832 17.523 18.2265 22 12.4818 22C6.73706 22 2.08032 17.523 2.08032 12C2.08032 6.477 6.73706 2 12.4818 2ZM12.4818 4C10.2749 4 8.15835 4.84285 6.59783 6.34315C5.03731 7.84344 4.16061 9.87827 4.16061 12C4.16061 14.1217 5.03731 16.1566 6.59783 17.6569C8.15835 19.1571 10.2749 20 12.4818 20C14.6887 20 16.8052 19.1571 18.3657 17.6569C19.9263 16.1566 20.8029 14.1217 20.8029 12C20.8029 9.87827 19.9263 7.84344 18.3657 6.34315C16.8052 4.84285 14.6887 4 12.4818 4ZM12.4818 7C13.2197 6.99926 13.9493 7.14979 14.6219 7.44155C15.2945 7.73332 15.8946 8.15961 16.3823 8.692C16.565 8.89091 16.6579 9.15142 16.6407 9.41623C16.6236 9.68103 16.4977 9.92843 16.2908 10.104C16.0839 10.2796 15.8129 10.3689 15.5375 10.3524C15.2621 10.3359 15.0047 10.2149 14.8221 10.016C14.4029 9.55889 13.8489 9.23536 13.2337 9.08846C12.6185 8.94157 11.9714 8.97827 11.3785 9.19368C10.7855 9.4091 10.2749 9.79301 9.91448 10.2943C9.5541 10.7957 9.36106 11.3906 9.36106 12C9.36106 12.6094 9.5541 13.2043 9.91448 13.7057C10.2749 14.207 10.7855 14.5909 11.3785 14.8063C11.9714 15.0217 12.6185 15.0584 13.2337 14.9115C13.8489 14.7646 14.4029 14.4411 14.8221 13.984C15.0047 13.7851 15.2621 13.6641 15.5375 13.6476C15.8129 13.6311 16.0839 13.7204 16.2908 13.896C16.4977 14.0716 16.6236 14.319 16.6407 14.5838C16.6579 14.8486 16.565 15.1091 16.3823 15.308C15.8074 15.9345 15.0784 16.4124 14.2619 16.6983C13.4453 16.9841 12.5673 17.0687 11.708 16.9442C10.8487 16.8198 10.0356 16.4904 9.34282 15.986C8.65007 15.4817 8.09981 14.8185 7.74231 14.057C7.38481 13.2956 7.23146 12.4601 7.29629 11.627C7.36111 10.7939 7.64204 9.98969 8.11339 9.28784C8.58475 8.58599 9.23152 8.00888 9.99462 7.60923C10.7577 7.20957 11.6128 7.00012 12.4818 7Z" fill="#80B6BB"/>
</g>
<defs>
<clipPath id="clip0_189_382">
<rect width="24" height="24" fill="white"/>
</clipPath>
</defs>
</svg>
