<svg width="36" height="48" viewBox="0 0 36 48" fill="none" xmlns="http://www.w3.org/2000/svg">
<path fill-rule="evenodd" clip-rule="evenodd" d="M14.3333 43.6909H21.4665L20.4959 48H15.2911L14.3333 43.6909ZM12.3517 17.3203C12.7232 23.8013 14.3729 31.9 17.2018 41.3C17.6909 41.5449 18.1554 41.5356 18.598 41.3C21.4259 31.9032 23.0757 23.8064 23.4477 17.3265C24.6718 -6 11.1561 -5.34375 12.3517 17.3203ZM15.3038 0C15.3038 0 6.97692 3.1515 7.57635 15.2729C8.1757 27.3942 16.4579 41.2934 16.4579 41.2934C11.3592 36.7697 3.80714 22.677 3.66164 14.3841C3.60923 7.03125 8.61539 0.865312 15.3038 0ZM2.06479 15.4481C3.28195 27.7562 15.8357 41.7686 14.8335 40.8495C12.038 38.4386 2.62523 27.0874 0.856449 16.4507C-0.912332 5.81409 8.03207 2.13 8.03207 2.13C2.8402 5.65003 1.48204 10.8012 2.06479 15.4481ZM21.2317 40.7147C21.9148 39.2916 27.8195 26.6913 28.3842 15.2729C28.9835 3.1515 20.6567 0 20.6567 0C21.433 0.033 23.1608 0.537 24.7919 1.31438C26.4229 2.09166 32.1866 5.63316 32.2988 14.3841C32.2032 19.8319 29.6294 27.5906 26.4293 33.5559C29.6708 28.5847 33.308 21.7903 33.9351 15.4481C34.5179 10.8013 33.1598 5.65003 27.9679 2.13C27.9679 2.13 36.9122 5.81409 35.1435 16.4507C33.3746 27.0874 23.9449 38.4499 21.1496 40.8607L21.2317 40.7147Z" fill="#99BB80"/>
</svg>
