<svg width="62" height="48" viewBox="0 0 62 48" fill="none" xmlns="http://www.w3.org/2000/svg">
<g clip-path="url(#clip0_47_872)">
<path d="M56.7273 42.5455V16.3636C56 17.1818 55.2159 17.9318 54.375 18.6136C48.2841 23.2955 43.4432 27.1364 39.8523 30.1364C38.6932 31.1136 37.75 31.875 37.0227 32.4205C36.2955 32.9659 35.3125 33.517 34.0739 34.0739C32.8352 34.6307 31.6705 34.9091 30.5795 34.9091H30.5114C29.4205 34.9091 28.2557 34.6307 27.017 34.0739C25.7784 33.517 24.7955 32.9659 24.0682 32.4205C23.3409 31.875 22.3977 31.1136 21.2386 30.1364C17.6477 27.1364 12.8068 23.2955 6.71591 18.6136C5.875 17.9318 5.09091 17.1818 4.36364 16.3636V42.5455C4.36364 42.8409 4.47159 43.0966 4.6875 43.3125C4.90341 43.5284 5.15909 43.6364 5.45455 43.6364H55.6364C55.9318 43.6364 56.1875 43.5284 56.4034 43.3125C56.6193 43.0966 56.7273 42.8409 56.7273 42.5455ZM56.7273 6.71591V5.88068L56.7102 5.4375L56.608 5.01136L56.4205 4.70455L56.1136 4.44886L55.6364 4.36364H5.45455C5.15909 4.36364 4.90341 4.47159 4.6875 4.6875C4.47159 4.90341 4.36364 5.15909 4.36364 5.45455C4.36364 9.27273 6.03409 12.5 9.375 15.1364C13.7614 18.5909 18.3182 22.1932 23.0455 25.9432C23.1818 26.0568 23.5795 26.392 24.2386 26.9489C24.8977 27.5057 25.4205 27.9318 25.8068 28.2273C26.1932 28.5227 26.6989 28.8807 27.3239 29.3011C27.9489 29.7216 28.5227 30.0341 29.0455 30.2386C29.5682 30.4432 30.0568 30.5455 30.5114 30.5455H30.5795C31.0341 30.5455 31.5227 30.4432 32.0455 30.2386C32.5682 30.0341 33.142 29.7216 33.767 29.3011C34.392 28.8807 34.8977 28.5227 35.2841 28.2273C35.6705 27.9318 36.1932 27.5057 36.8523 26.9489C37.5114 26.392 37.9091 26.0568 38.0455 25.9432C42.7727 22.1932 47.3295 18.5909 51.7159 15.1364C52.9432 14.1591 54.0852 12.8466 55.142 11.1989C56.1989 9.55114 56.7273 8.05682 56.7273 6.71591ZM61.0909 5.45455V42.5455C61.0909 44.0455 60.5568 45.3295 59.4886 46.3977C58.4205 47.4659 57.1364 48 55.6364 48H5.45455C3.95455 48 2.67045 47.4659 1.60227 46.3977C0.534091 45.3295 0 44.0455 0 42.5455V5.45455C0 3.95455 0.534091 2.67045 1.60227 1.60227C2.67045 0.534091 3.95455 0 5.45455 0H55.6364C57.1364 0 58.4205 0.534091 59.4886 1.60227C60.5568 2.67045 61.0909 3.95455 61.0909 5.45455Z" fill="#80B6BB"/>
</g>
<defs>
<clipPath id="clip0_47_872">
<rect width="61.0909" height="48" fill="white"/>
</clipPath>
</defs>
</svg>
