<svg width="35" height="48" viewBox="0 0 35 48" fill="none" xmlns="http://www.w3.org/2000/svg">
<path d="M0.814667 8.98054C0.814667 4.02072 4.8354 0 9.79526 0H25.2048C30.1646 0 34.1854 4.02072 34.1854 8.98054C34.1854 12.1211 32.5732 14.8853 30.1313 16.4903C32.5732 18.0955 34.1854 20.8596 34.1854 24.0002C34.1854 28.96 30.1646 32.9808 25.2048 32.9808H25.0098C22.6846 32.9808 20.5657 32.0971 18.9709 30.6472V38.9219C18.9709 43.9478 14.845 48 9.84364 48C4.89618 48 0.814667 43.9915 0.814667 39.0194C0.814667 35.879 2.42665 33.115 4.86834 31.5098C2.42665 29.9047 0.814667 27.1406 0.814667 24.0002C0.814667 20.8596 2.42679 18.0955 4.86865 16.4903C2.42679 14.8853 0.814667 12.1211 0.814667 8.98054ZM16.0292 17.9613H9.79526C6.46003 17.9613 3.75634 20.665 3.75634 24.0002C3.75634 27.3225 6.43918 30.0182 9.75664 30.039C9.76948 30.0389 9.78232 30.0389 9.79526 30.0389H16.0292V17.9613ZM18.9709 24.0002C18.9709 27.3353 21.6745 30.0391 25.0098 30.0391H25.2048C28.54 30.0391 31.2437 27.3353 31.2437 24.0002C31.2437 20.665 28.54 17.9613 25.2048 17.9613H25.0098C21.6745 17.9613 18.9709 20.665 18.9709 24.0002ZM9.79526 32.9808C9.78232 32.9808 9.76948 32.9807 9.75664 32.9807C6.43918 33.0014 3.75634 35.6971 3.75634 39.0194C3.75634 42.3424 6.49615 45.0583 9.84364 45.0583C13.2451 45.0583 16.0292 42.2987 16.0292 38.9219V32.9808H9.79526ZM9.79526 2.94167C6.46003 2.94167 3.75634 5.64537 3.75634 8.98054C3.75634 12.3158 6.46003 15.0194 9.79526 15.0194H16.0292V2.94167H9.79526ZM18.9709 15.0194H25.2048C28.54 15.0194 31.2437 12.3158 31.2437 8.98054C31.2437 5.64537 28.54 2.94167 25.2048 2.94167H18.9709V15.0194Z" fill="#99BB80"/>
</svg>
