<svg width="48" height="48" viewBox="0 0 48 48" fill="none" xmlns="http://www.w3.org/2000/svg">
<path d="M24 0C28.3542 0 32.3698 1.09574 36.0469 3.28723C39.724 5.47872 42.6354 8.45213 44.7812 12.2074C46.9271 15.9628 48 20.0638 48 24.5106C48 29.8511 46.474 34.6543 43.4219 38.9202C40.3698 43.1862 36.4271 46.1383 31.5938 47.7766C31.0312 47.883 30.6146 47.8085 30.3438 47.5532C30.0729 47.2979 29.9375 46.9787 29.9375 46.5957C29.9375 46.5319 29.9427 45.7181 29.9531 44.1543C29.9635 42.5904 29.9688 41.1596 29.9688 39.8617C29.9688 37.7979 29.4271 36.2872 28.3438 35.3298C29.5312 35.2021 30.599 35.0106 31.5469 34.7553C32.4948 34.5 33.474 34.0851 34.4844 33.5106C35.4948 32.9362 36.3385 32.2287 37.0156 31.3883C37.6927 30.5479 38.2448 29.4309 38.6719 28.0372C39.099 26.6436 39.3125 25.0426 39.3125 23.234C39.3125 20.7021 38.4896 18.5106 36.8438 16.6596C37.6146 14.7234 37.5312 12.5532 36.5938 10.1489C36.0104 9.95745 35.1667 10.0745 34.0625 10.5C32.9583 10.9255 32 11.3936 31.1875 11.9043L30 12.6702C28.0625 12.117 26.0625 11.8404 24 11.8404C21.9375 11.8404 19.9375 12.117 18 12.6702C17.6667 12.4362 17.224 12.1489 16.6719 11.8085C16.1198 11.4681 15.25 11.0585 14.0625 10.5798C12.875 10.1011 11.9896 9.95745 11.4062 10.1489C10.4688 12.5532 10.3854 14.7234 11.1562 16.6596C9.51042 18.5106 8.6875 20.7021 8.6875 23.234C8.6875 25.0426 8.90104 26.6383 9.32812 28.0213C9.75521 29.4043 10.3021 30.5213 10.9688 31.3723C11.6354 32.2234 12.474 32.9362 13.4844 33.5106C14.4948 34.0851 15.474 34.5 16.4219 34.7553C17.3698 35.0106 18.4375 35.2021 19.625 35.3298C18.8125 36.0957 18.3021 37.1915 18.0938 38.617C17.6562 38.8298 17.1875 38.9894 16.6875 39.0957C16.1875 39.2021 15.5938 39.2553 14.9062 39.2553C14.2188 39.2553 13.5365 39.0266 12.8594 38.5691C12.1823 38.1117 11.6042 37.4468 11.125 36.5745C10.7292 35.8936 10.224 35.3404 9.60938 34.9149C8.99479 34.4894 8.47917 34.234 8.0625 34.1489L7.4375 34.0532C7 34.0532 6.69792 34.1011 6.53125 34.1968C6.36458 34.2926 6.3125 34.4149 6.375 34.5638C6.4375 34.7128 6.53125 34.8617 6.65625 35.0106C6.78125 35.1596 6.91667 35.2872 7.0625 35.3936L7.28125 35.5532C7.73958 35.766 8.19271 36.1702 8.64062 36.766C9.08854 37.3617 9.41667 37.9043 9.625 38.3936L9.9375 39.1277C10.2083 39.9362 10.6667 40.5904 11.3125 41.0904C11.9583 41.5904 12.6562 41.9096 13.4062 42.0479C14.1562 42.1862 14.8802 42.2606 15.5781 42.2713C16.276 42.2819 16.8542 42.2447 17.3125 42.1596L18.0312 42.0319C18.0312 42.8404 18.0365 43.7819 18.0469 44.8564C18.0573 45.9309 18.0625 46.5106 18.0625 46.5957C18.0625 46.9787 17.9271 47.2979 17.6562 47.5532C17.3854 47.8085 16.9688 47.883 16.4062 47.7766C11.5729 46.1383 7.63021 43.1862 4.57812 38.9202C1.52604 34.6543 0 29.8511 0 24.5106C0 20.0638 1.07292 15.9628 3.21875 12.2074C5.36458 8.45213 8.27604 5.47872 11.9531 3.28723C15.6302 1.09574 19.6458 0 24 0ZM9.09375 35.2021C9.15625 35.0532 9.08333 34.9255 8.875 34.8191C8.66667 34.7553 8.53125 34.7766 8.46875 34.883C8.40625 35.0319 8.47917 35.1596 8.6875 35.266C8.875 35.3936 9.01042 35.3723 9.09375 35.2021ZM10.0625 36.2872C10.2083 36.1809 10.1875 36.0106 10 35.7766C9.79167 35.5851 9.625 35.5532 9.5 35.6809C9.35417 35.7872 9.375 35.9574 9.5625 36.1915C9.77083 36.4043 9.9375 36.4362 10.0625 36.2872ZM11 37.7234C11.1875 37.5745 11.1875 37.3723 11 37.117C10.8333 36.8404 10.6562 36.7766 10.4688 36.9255C10.2812 37.0319 10.2812 37.2234 10.4688 37.5C10.6562 37.7766 10.8333 37.8511 11 37.7234ZM12.3125 39.0638C12.4792 38.8936 12.4375 38.6915 12.1875 38.4574C11.9375 38.2021 11.7292 38.1702 11.5625 38.3617C11.375 38.5319 11.4167 38.734 11.6875 38.9681C11.9375 39.2234 12.1458 39.2553 12.3125 39.0638ZM14.0938 39.8617C14.1562 39.6277 14.0208 39.4574 13.6875 39.3511C13.375 39.266 13.1771 39.3404 13.0938 39.5745C13.0104 39.8085 13.1458 39.9681 13.5 40.0532C13.8125 40.1809 14.0104 40.117 14.0938 39.8617ZM16.0625 40.0213C16.0625 39.7447 15.8854 39.6277 15.5312 39.6702C15.1979 39.6702 15.0312 39.7872 15.0312 40.0213C15.0312 40.2979 15.2083 40.4149 15.5625 40.3723C15.8958 40.3723 16.0625 40.2553 16.0625 40.0213ZM17.875 39.7021C17.8333 39.4681 17.6458 39.3723 17.3125 39.4149C16.9792 39.4787 16.8333 39.6383 16.875 39.8936C16.9167 40.1489 17.1042 40.234 17.4375 40.1489C17.7708 40.0638 17.9167 39.9149 17.875 39.7021Z" fill="#E8FBFD"/>
</svg>
