<svg width="48" height="49" viewBox="0 0 48 49" fill="none" xmlns="http://www.w3.org/2000/svg">
<path d="M11.7273 12.9091H19.9091V34.7273L14.4546 32M36.2727 12.9091H29.4546C29.0929 12.9091 28.746 13.0528 28.4903 13.3085C28.2346 13.5642 28.0909 13.9111 28.0909 14.2727V22.4545C28.0909 22.8162 28.2346 23.1631 28.4903 23.4188C28.746 23.6745 29.0929 23.8182 29.4546 23.8182H33.3355C33.5306 23.8182 33.7236 23.8601 33.9011 23.9411C34.0787 24.0221 34.2369 24.1403 34.3648 24.2877C34.4928 24.4351 34.5877 24.6082 34.643 24.7954C34.6983 24.9826 34.7128 25.1795 34.6855 25.3727L33.5455 33.3636L28.0909 34.7273M45.8182 2L40.3636 41.5455L24 47L7.63637 41.5455L2.18182 2H45.8182Z" stroke="#99BB80" stroke-width="3" stroke-linecap="round" stroke-linejoin="round"/>
</svg>
