<svg width="48" height="46" viewBox="0 0 48 46" fill="none" xmlns="http://www.w3.org/2000/svg">
<path d="M0.5 0V45.8221H47.5V0H0.5ZM2.45784 1.95784H45.5407V43.8628H2.45784V1.95784ZM11.8593 10.7322C11.8593 10.6014 12.1354 10.503 12.2955 10.503C13.9778 10.4319 15.6614 10.3986 17.3451 10.4032C22.7765 10.4032 24.8871 13.3788 24.8871 17.1888C24.8871 22.1693 21.2769 24.3034 16.8545 24.3034C16.1055 24.3034 15.8528 24.2652 15.3329 24.2652V31.7926C15.3329 31.9527 15.2712 32.0217 15.1111 32.0217H12.0811C11.921 32.0217 11.8593 31.96 11.8593 31.7999V10.7322ZM15.3329 21.1368C15.7838 21.1676 16.1437 21.1676 16.9236 21.1676C19.2104 21.1676 21.368 20.3569 21.368 17.2593C21.368 14.7727 19.8229 13.511 17.207 13.511C16.4345 13.511 15.6927 13.5419 15.3329 13.5727V21.1368ZM32.1927 18.8029C30.6402 18.8029 30.1203 19.5828 30.1203 20.2262C30.1203 20.937 30.4728 21.4202 32.5452 22.491C35.6134 23.9832 36.5843 25.3976 36.5843 27.5009C36.5843 30.6293 34.1902 32.3125 30.9619 32.3125C29.2478 32.3125 27.7879 31.9527 26.9463 31.4709C26.8244 31.4092 26.7936 31.3108 26.7936 31.1493V28.2734C26.7936 28.0825 26.8861 28.0135 27.0153 28.1133C28.1875 28.8755 29.5564 29.2797 30.9545 29.2766C32.507 29.2766 33.1503 28.6333 33.1503 27.755C33.1503 27.0441 32.6994 26.4316 30.7327 25.3991C27.948 24.0684 26.7847 22.7142 26.7847 20.4494C26.7847 17.9246 28.7588 15.8287 32.178 15.8287C33.8612 15.8287 35.0465 16.0887 35.6971 16.3722C35.8572 16.472 35.8881 16.6321 35.8881 16.7628V19.4477C35.8881 19.6078 35.7882 19.7077 35.5972 19.6387C34.7248 19.1261 33.4397 18.7971 32.1853 18.7971L32.1927 18.8029Z" fill="#99BB80"/>
</svg>
