<svg width="48" height="44" viewBox="0 0 48 44" fill="none" xmlns="http://www.w3.org/2000/svg">
<path d="M23.116 0C10.348 0 0 10.352 0 23.116C0 25.632 0.402 28.056 1.148 30.31L1.152 30.296C1.41528 29.0798 1.76961 27.8851 2.212 26.722L2.234 26.662C2.404 26.218 2.592 25.778 2.788 25.342L2.956 24.98C3.116 24.638 3.286 24.3 3.462 23.966C3.534 23.83 3.602 23.694 3.678 23.56C3.718 23.484 3.766 23.414 3.806 23.34C3.994 23.008 4.186 22.676 4.386 22.354L4.536 22.126C4.786 21.736 5.048 21.354 5.322 20.98L5.392 20.88C5.68 20.494 5.982 20.12 6.294 19.754L6.494 19.518C6.804 19.164 7.124 18.818 7.456 18.484L7.654 18.29C8.00582 17.9417 8.37005 17.6061 8.746 17.284C10.226 12.324 14.756 8.714 20.118 8.714C22.276 8.714 24.422 9.334 26.26 10.46C28.1499 11.6259 29.6804 13.2921 30.682 15.274L30.696 15.304L30.776 15.452V15.458L30.784 15.462C31.9056 16.1546 32.9555 16.9572 33.918 17.858C33.998 17.932 34.08 18 34.158 18.076C34.162 18.076 34.17 18.086 34.172 18.088L34.168 18.076L34.166 18.068V18.062L34.25 17.894C35.004 13.126 37.11 9.69 39.59 9.69C41.458 9.69 43.114 11.64 44.142 14.642L44.152 14.674L44.154 14.678C44.444 14.994 44.728 15.34 45.002 15.72L45.016 15.74L45.058 15.874L45.018 15.718C41.934 6.58 33.292 0.00399995 23.114 0.00399995L23.116 0ZM19.854 8.886C15.172 8.972 10.68 12.196 9.148 16.662L9.124 16.73C9.95244 16.0654 10.8318 15.4669 11.754 14.94C17.366 11.628 24.712 11.648 30.31 14.972C28.52 11.666 25.048 9.334 21.31 8.964C20.8271 8.90357 20.3406 8.87751 19.854 8.886ZM39.522 9.886C39.2569 9.8924 38.9941 9.93754 38.742 10.02C36.212 11.144 35.304 14.166 34.68 16.626L34.648 16.77C35.378 15.53 36.264 14.34 37.44 13.486C39.11 12.112 41.65 12.176 43.272 13.592C43.888 14.244 43.554 13.608 43.334 13.152C42.65 11.652 41.284 9.846 39.522 9.884V9.886ZM24.7 14.562L22.56 21.102L22.556 21.112L22.544 21.116L13.548 23.34H13.53L22.442 25.514C22.652 25.734 22.896 25.924 23.162 26.074H23.166C23.25 26.122 23.336 26.164 23.424 26.204L23.444 26.214C23.526 26.25 23.61 26.28 23.696 26.308L23.738 26.324C23.818 26.35 23.898 26.37 23.978 26.388L24.044 26.404C24.2534 26.4462 24.4664 26.4683 24.68 26.47C25.2907 26.4717 25.8882 26.2926 26.3971 25.9551C26.9061 25.6177 27.3038 25.1371 27.54 24.574C27.7 24.202 27.786 23.794 27.786 23.366V23.344L27.784 23.32C27.7824 23.2131 27.7757 23.1063 27.764 23L27.762 22.996C27.7499 22.8932 27.7326 22.791 27.71 22.69L27.708 22.682C27.6635 22.484 27.5992 22.2911 27.516 22.106V22.1C27.3515 21.7303 27.1149 21.3971 26.82 21.12V21.114L24.7 14.562ZM30.996 15.814C31.092 17.83 31.068 19.906 30.796 21.928C30.456 25.964 28.416 29.524 26.852 33.16L26.792 33.32L26.722 33.492C29.742 30.448 33.062 27.412 34.66 23.328C35.426 22.056 34.896 20.644 34.43 19.376C34.09 17.622 32.292 16.82 30.996 15.814ZM43.34 16.958L42.164 22.334C42.1249 22.4654 42.0935 22.599 42.07 22.734C42.066 22.774 42.056 22.814 42.05 22.854C42.03 23.0012 42.0193 23.1495 42.018 23.298L42.014 23.36H42.02C42.02 24.616 42.614 25.632 43.346 25.634C43.4727 25.6325 43.5972 25.6017 43.71 25.544L43.764 25.514C43.8131 25.4864 43.8599 25.455 43.904 25.42C43.93 25.4 43.952 25.376 43.976 25.354C44.0831 25.2558 44.1754 25.1426 44.25 25.018L44.31 24.91C44.3482 24.8397 44.3829 24.7676 44.414 24.694L44.448 24.614C44.488 24.508 44.524 24.398 44.554 24.282L44.558 24.278L44.56 24.272L45.368 23.37L44.554 22.458V22.46L44.514 22.334L43.34 16.958ZM34.578 18.67C35.958 22.102 36.278 26.084 34.76 29.53C33.78 32.266 31.586 34.456 31.012 37.34C32.472 37.57 33.948 37.692 35.432 37.712C39.764 37.77 44.096 36.872 48 34.982C43.92 29.244 39.758 23.472 34.578 18.67ZM24.682 20.624C24.9912 20.624 25.2878 20.7468 25.5065 20.9655C25.7252 21.1842 25.848 21.4808 25.848 21.79C25.848 22.0992 25.7252 22.3958 25.5065 22.6145C25.2878 22.8332 24.9912 22.956 24.682 22.956C24.3728 22.956 24.0762 22.8332 23.8575 22.6145C23.6388 22.3958 23.516 22.0992 23.516 21.79C23.516 21.4808 23.6388 21.1842 23.8575 20.9655C24.0762 20.7468 24.3728 20.624 24.682 20.624ZM43.386 21.364C43.662 21.364 43.884 21.744 43.884 22.216C43.884 22.688 43.662 23.068 43.386 23.068C43.112 23.068 42.89 22.688 42.89 22.216C42.89 21.746 43.11 21.364 43.386 21.364ZM35.298 21.732C35.2709 21.9264 35.2375 22.1198 35.198 22.312L35.186 22.358C35.166 22.458 35.142 22.546 35.12 22.614C34.16 25.448 32.57 27.654 30.4 30.008C30.106 30.328 29.798 30.648 29.482 30.976C28.6963 31.7908 27.8989 32.5942 27.09 33.386C26.866 33.606 26.572 33.908 26.24 34.258C26.034 34.832 25.8 35.478 25.604 36.158C25.516 36.126 25.432 36.096 25.342 36.06C21.126 34.43 18.304 32.252 18.304 32.252C18.304 32.252 20.476 35.08 24.134 37.732C24.488 37.99 24.836 38.212 25.178 38.41C25.028 40.798 26.082 43.09 30.838 43.774C31.6526 43.8842 32.478 43.8896 33.294 43.79L33.274 43.732C33.2719 43.7251 33.2692 43.7184 33.266 43.712C33.266 43.712 32.932 43.446 32.508 42.958C32.0369 42.4174 31.6437 41.8136 31.34 41.164C31.0865 40.6157 30.9076 40.0358 30.808 39.44C30.7043 38.7965 30.7002 38.1408 30.796 37.496C30.83 37.256 30.876 37.014 30.94 36.764C31.126 36.016 31.45 35.22 31.954 34.38L31.958 34.374L32.44 33.566C34.646 29.846 36.034 27.016 35.452 22.684C35.4086 22.3653 35.3586 22.0479 35.298 21.732ZM44.66 23.29L44.666 23.362V23.382C44.666 23.408 44.66 23.432 44.66 23.458C44.66 23.43 44.666 23.402 44.666 23.372C44.666 23.344 44.662 23.32 44.66 23.292V23.29ZM44.636 23.84L44.632 23.862L44.628 23.89L44.636 23.84ZM47.342 35.696C42.236 37.972 36.462 38.576 30.958 37.71C30.678 39.926 31.726 42.146 33.386 43.57L33.41 43.59C38.816 42.724 43.36 39.252 47.342 35.696Z" fill="#99BB80"/>
</svg>
