<svg width="48" height="48" viewBox="0 0 48 48" fill="none" xmlns="http://www.w3.org/2000/svg">
<path d="M24 20.2199C26.06 20.2199 27.74 21.8999 27.74 23.9999C27.74 25.9999 26.06 27.6999 24 27.6999C21.94 27.6999 20.26 25.9999 20.26 23.9999C20.26 21.8999 21.94 20.2199 24 20.2199ZM14.74 39.9999C16 40.7599 18.76 39.5999 21.94 36.5999C20.9 35.4199 19.88 34.1399 18.92 32.7999C17.3083 32.6457 15.706 32.4054 14.12 32.0799C13.1 36.3599 13.48 39.2999 14.74 39.9999ZM16.16 28.5199L15.58 27.4999C15.36 28.0799 15.14 28.6599 15 29.2199C15.54 29.3399 16.14 29.4399 16.76 29.5399L16.16 28.5199ZM29.24 26.9999L30.86 23.9999L29.24 20.9999C28.64 19.9399 28 18.9999 27.42 18.0599C26.34 17.9999 25.2 17.9999 24 17.9999C22.8 17.9999 21.66 17.9999 20.58 18.0599C20 18.9999 19.36 19.9399 18.76 20.9999L17.14 23.9999L18.76 26.9999C19.36 28.0599 20 28.9999 20.58 29.9399C21.66 29.9999 22.8 29.9999 24 29.9999C25.2 29.9999 26.34 29.9999 27.42 29.9399C28 28.9999 28.64 28.0599 29.24 26.9999ZM24 13.5599C23.62 13.9999 23.22 14.4599 22.82 14.9999H25.18C24.78 14.4599 24.38 13.9999 24 13.5599ZM24 34.4399C24.38 33.9999 24.78 33.5399 25.18 32.9999H22.82C23.22 33.5399 23.62 33.9999 24 34.4399ZM33.24 7.99993C32 7.23993 29.24 8.39993 26.06 11.3999C27.1 12.5799 28.12 13.8599 29.08 15.1999C30.72 15.3599 32.34 15.5999 33.88 15.9199C34.9 11.6399 34.52 8.69993 33.24 7.99993ZM31.84 19.4799L32.42 20.4999C32.64 19.9199 32.86 19.3399 33 18.7799C32.46 18.6599 31.86 18.5599 31.24 18.4599L31.84 19.4799ZM34.74 5.37994C37.68 7.05993 38 11.4799 36.76 16.6399C41.84 18.1399 45.5 20.6199 45.5 23.9999C45.5 27.3799 41.84 29.8599 36.76 31.3599C38 36.5199 37.68 40.9399 34.74 42.6199C31.82 44.2999 27.84 42.3799 24 38.7199C20.16 42.3799 16.18 44.2999 13.24 42.6199C10.32 40.9399 10 36.5199 11.24 31.3599C6.16 29.8599 2.5 27.3799 2.5 23.9999C2.5 20.6199 6.16 18.1399 11.24 16.6399C10 11.4799 10.32 7.05993 13.24 5.37994C16.18 3.69994 20.16 5.61993 24 9.27993C27.84 5.61993 31.82 3.69994 34.74 5.37994ZM34.16 23.9999C34.84 25.4999 35.44 26.9999 35.94 28.5199C40.14 27.2599 42.5 25.4599 42.5 23.9999C42.5 22.5399 40.14 20.7399 35.94 19.4799C35.44 20.9999 34.84 22.4999 34.16 23.9999ZM13.84 23.9999C13.16 22.4999 12.56 20.9999 12.06 19.4799C7.86 20.7399 5.5 22.5399 5.5 23.9999C5.5 25.4599 7.86 27.2599 12.06 28.5199C12.56 26.9999 13.16 25.4999 13.84 23.9999ZM31.84 28.5199L31.24 29.5399C31.86 29.4399 32.46 29.3399 33 29.2199C32.86 28.6599 32.64 28.0799 32.42 27.4999L31.84 28.5199ZM26.06 36.5999C29.24 39.5999 32 40.7599 33.24 39.9999C34.52 39.2999 34.9 36.3599 33.88 32.0799C32.34 32.3999 30.72 32.6399 29.08 32.7999C28.12 34.1399 27.1 35.4199 26.06 36.5999ZM16.16 19.4799L16.76 18.4599C16.14 18.5599 15.54 18.6599 15 18.7799C15.14 19.3399 15.36 19.9199 15.58 20.4999L16.16 19.4799ZM21.94 11.3999C18.76 8.39993 16 7.23993 14.74 7.99993C13.48 8.69993 13.1 11.6399 14.12 15.9199C15.706 15.5945 17.3083 15.3542 18.92 15.1999C19.88 13.8599 20.9 12.5799 21.94 11.3999Z" fill="#99BB80"/>
</svg>
