<svg width="48" height="36" viewBox="0 0 48 36" fill="none" xmlns="http://www.w3.org/2000/svg">
<mask id="path-1-inside-1_89_1088" fill="white">
<path d="M22.6363 27.216C22.5913 27.297 22.6138 27.261 22.6363 27.216V27.216ZM41.3184 20.6916C39.8096 20.6916 38.3217 21.0366 36.9689 21.704C36.5264 20.8116 36.069 20.0317 35.994 19.4468C35.904 18.7643 35.8065 18.3594 35.9115 17.5495C36.0165 16.7395 36.4889 15.5921 36.4814 15.5097C36.4739 15.4272 36.3764 15.0147 35.409 15.0072C34.4416 14.9997 33.6092 15.1947 33.5117 15.4497C33.3405 15.9155 33.2076 16.3946 33.1143 16.882C32.9418 17.7594 31.1809 20.8941 30.1835 22.529C29.8536 21.8915 29.5761 21.3291 29.5161 20.8791C29.4261 20.1967 29.3286 19.7917 29.4336 18.9818C29.5386 18.1719 30.0111 17.0245 30.0036 16.942C29.9961 16.8595 29.8986 16.4471 28.9327 16.4396C27.9668 16.4321 27.1328 16.627 27.0354 16.882C26.9379 17.137 26.8329 17.7369 26.6379 18.3144C26.4429 18.8918 24.0956 24.1113 23.4822 25.4687C23.1672 26.1586 22.8973 26.7136 22.7023 27.0885C22.6723 27.1485 22.6498 27.186 22.6348 27.216C22.6573 27.1785 22.6723 27.141 22.6723 27.156C22.5073 27.4785 22.4098 27.6585 22.4098 27.6585V27.666C22.2823 27.9059 22.1398 28.1234 22.0723 28.1234C22.0273 28.1234 21.9299 27.4935 22.0948 26.6311C22.4473 24.8162 23.2797 21.9965 23.2722 21.899C23.2647 21.8465 23.4297 21.3591 22.7248 21.0966C22.0423 20.8491 21.7949 21.2616 21.7349 21.2616C21.6749 21.2616 21.6299 21.4116 21.6299 21.4116C21.6299 21.4116 22.3873 18.2319 20.175 18.2319C18.7952 18.2319 16.8754 19.7467 15.9319 21.1191C15.3395 21.4416 14.0571 22.139 12.7073 22.8814L11.1549 23.7363C11.1174 23.6988 11.0874 23.6614 11.0499 23.6239C8.36519 20.7591 3.40968 18.7343 3.61966 14.8872C3.69465 13.4849 4.1821 9.80272 13.1497 5.33316C20.499 1.67352 26.3739 2.67842 27.3863 4.9132C28.8412 8.10038 24.2441 14.0323 16.6129 14.8872C13.7032 15.2097 12.1748 14.0848 11.7924 13.6648C11.3949 13.2224 11.3349 13.1999 11.1849 13.2824C10.9374 13.4174 11.0949 13.8073 11.1849 14.0398C11.4099 14.6322 12.3473 15.6821 13.9446 16.2071C15.347 16.6645 18.7577 16.9195 22.8808 15.3222C27.5138 13.5373 31.121 8.56534 30.0621 4.40325C28.9852 0.173664 21.9719 -1.2137 15.341 1.14107C11.3889 2.54343 7.11581 4.74821 4.04262 7.62043C0.390475 11.0401 -0.192968 14.0173 0.0470087 15.2622C0.901925 19.6792 6.98983 22.559 9.42559 24.6888L9.08812 24.8762C7.86574 25.4837 3.2252 27.9134 2.06281 30.4782C0.75044 33.3879 2.28029 35.4727 3.28369 35.7577C6.41838 36.6276 9.62657 35.0602 11.3514 32.488C13.0762 29.9157 12.8662 26.5561 12.0713 25.0262C12.0638 25.0037 12.0488 24.9887 12.0413 24.9662C12.9412 24.4332 13.8487 23.9132 14.7636 23.4064C14.4636 24.2163 14.2461 25.1912 14.1336 26.6011C13.9986 28.2509 14.6811 30.3882 15.566 31.2281C15.9559 31.5956 16.4269 31.6031 16.7209 31.6031C17.7558 31.6031 18.2207 30.7482 18.7382 29.7283C19.3756 28.4834 19.9381 27.036 19.9381 27.036C19.9381 27.036 19.2331 30.9506 21.1604 30.9506C21.8654 30.9506 22.5703 30.0432 22.8853 29.5783V29.5858C22.8853 29.5858 22.9003 29.5558 22.9378 29.4958C23.0128 29.3833 23.0502 29.3158 23.0502 29.3158V29.2933C23.3352 28.8058 23.9577 27.6885 24.8951 25.8436C26.1099 23.4589 27.2708 20.4817 27.2708 20.4817C27.3833 21.1356 27.5393 21.782 27.7358 22.4165C27.9458 23.1289 28.3882 23.9088 28.7407 24.6663C28.4557 25.0562 28.2832 25.2812 28.2832 25.2812C28.2832 25.2872 28.2862 25.2917 28.2907 25.2962C28.0658 25.5962 27.8108 25.9186 27.5483 26.2336C26.5899 27.3735 25.4485 28.6784 25.2985 29.0533C25.1185 29.4958 25.1635 29.8257 25.5085 30.0807C25.7635 30.2757 26.2134 30.3057 26.6859 30.2682C27.5483 30.2082 28.1557 29.9982 28.4482 29.8632C28.9877 29.67 29.4975 29.4024 29.9631 29.0683C30.9005 28.3784 31.4704 27.3885 31.4179 26.0836C31.3879 25.3637 31.1554 24.6438 30.8705 23.9688C30.953 23.8488 31.043 23.7213 31.1255 23.5939C32.1014 22.1377 32.9807 20.6191 33.7577 19.0478C33.8702 19.7017 34.0247 20.3482 34.2226 20.9826C34.4026 21.5901 34.7551 22.2575 35.0776 22.9099C33.6827 24.0423 32.8203 25.3547 32.5218 26.2171C31.9669 27.8144 32.4018 28.5344 33.2192 28.6994C33.5867 28.7744 34.1117 28.6019 34.5016 28.4369C35.0806 28.2434 35.6265 27.9629 36.12 27.6045C37.0574 26.9145 37.9648 25.9471 37.9033 24.6348C37.8808 24.0423 37.7158 23.4499 37.4983 22.8799C38.6757 22.385 40.2056 22.115 42.1554 22.34C46.331 22.8274 47.1484 25.4372 46.9909 26.5246C46.8334 27.612 45.956 28.2194 45.6635 28.3994C45.3711 28.5794 45.2811 28.6469 45.3036 28.7819C45.3411 28.9768 45.476 28.9693 45.7235 28.9243C46.0685 28.8643 47.9133 28.0394 47.9958 26.0221C48.1158 23.4724 45.6635 20.6676 41.3214 20.6901L41.3184 20.6916ZM9.13312 31.5431C7.75325 33.0504 5.81994 33.6204 4.98752 33.1404C4.09511 32.6215 4.44758 30.4032 6.14841 28.7969C7.18331 27.8219 8.51818 26.922 9.40309 26.3671C9.60557 26.2471 9.89804 26.0671 10.258 25.8496C10.2873 25.8309 10.3173 25.8134 10.348 25.7971C10.4155 25.7521 10.4905 25.7147 10.5655 25.6697C11.1864 27.9494 10.588 29.9607 9.13312 31.5431ZM19.2091 24.6888C18.7292 25.8661 17.7183 28.8658 17.1018 28.7084C16.5769 28.5734 16.2544 26.2861 16.9968 24.0363C17.3718 22.9039 18.1667 21.5541 18.6392 21.0291C19.3966 20.1817 20.229 19.9117 20.424 20.2492C20.6865 20.6916 19.5091 23.9538 19.2091 24.6888ZM27.5333 28.6634C27.3308 28.7684 27.1433 28.8358 27.0534 28.7833C26.9859 28.7459 27.1358 28.6034 27.1358 28.6034C27.1358 28.6034 28.1782 27.486 28.5907 26.976C28.8307 26.6761 29.1082 26.3236 29.4081 25.9336C29.4081 25.9711 29.4156 26.0086 29.4156 26.0536C29.4066 27.396 28.1182 28.3034 27.5333 28.6634ZM33.9527 27.201C33.8027 27.096 33.8252 26.7436 34.3276 25.6487C34.5226 25.2212 34.9726 24.5013 35.7525 23.8113C35.841 24.0723 35.889 24.3453 35.895 24.6213C35.8875 26.3086 34.6801 26.9385 33.9527 27.201Z"/>
</mask>
<path d="M22.6363 27.216C22.5913 27.297 22.6138 27.261 22.6363 27.216V27.216ZM41.3184 20.6916C39.8096 20.6916 38.3217 21.0366 36.9689 21.704C36.5264 20.8116 36.069 20.0317 35.994 19.4468C35.904 18.7643 35.8065 18.3594 35.9115 17.5495C36.0165 16.7395 36.4889 15.5921 36.4814 15.5097C36.4739 15.4272 36.3764 15.0147 35.409 15.0072C34.4416 14.9997 33.6092 15.1947 33.5117 15.4497C33.3405 15.9155 33.2076 16.3946 33.1143 16.882C32.9418 17.7594 31.1809 20.8941 30.1835 22.529C29.8536 21.8915 29.5761 21.3291 29.5161 20.8791C29.4261 20.1967 29.3286 19.7917 29.4336 18.9818C29.5386 18.1719 30.0111 17.0245 30.0036 16.942C29.9961 16.8595 29.8986 16.4471 28.9327 16.4396C27.9668 16.4321 27.1328 16.627 27.0354 16.882C26.9379 17.137 26.8329 17.7369 26.6379 18.3144C26.4429 18.8918 24.0956 24.1113 23.4822 25.4687C23.1672 26.1586 22.8973 26.7136 22.7023 27.0885C22.6723 27.1485 22.6498 27.186 22.6348 27.216C22.6573 27.1785 22.6723 27.141 22.6723 27.156C22.5073 27.4785 22.4098 27.6585 22.4098 27.6585V27.666C22.2823 27.9059 22.1398 28.1234 22.0723 28.1234C22.0273 28.1234 21.9299 27.4935 22.0948 26.6311C22.4473 24.8162 23.2797 21.9965 23.2722 21.899C23.2647 21.8465 23.4297 21.3591 22.7248 21.0966C22.0423 20.8491 21.7949 21.2616 21.7349 21.2616C21.6749 21.2616 21.6299 21.4116 21.6299 21.4116C21.6299 21.4116 22.3873 18.2319 20.175 18.2319C18.7952 18.2319 16.8754 19.7467 15.9319 21.1191C15.3395 21.4416 14.0571 22.139 12.7073 22.8814L11.1549 23.7363C11.1174 23.6988 11.0874 23.6614 11.0499 23.6239C8.36519 20.7591 3.40968 18.7343 3.61966 14.8872C3.69465 13.4849 4.1821 9.80272 13.1497 5.33316C20.499 1.67352 26.3739 2.67842 27.3863 4.9132C28.8412 8.10038 24.2441 14.0323 16.6129 14.8872C13.7032 15.2097 12.1748 14.0848 11.7924 13.6648C11.3949 13.2224 11.3349 13.1999 11.1849 13.2824C10.9374 13.4174 11.0949 13.8073 11.1849 14.0398C11.4099 14.6322 12.3473 15.6821 13.9446 16.2071C15.347 16.6645 18.7577 16.9195 22.8808 15.3222C27.5138 13.5373 31.121 8.56534 30.0621 4.40325C28.9852 0.173664 21.9719 -1.2137 15.341 1.14107C11.3889 2.54343 7.11581 4.74821 4.04262 7.62043C0.390475 11.0401 -0.192968 14.0173 0.0470087 15.2622C0.901925 19.6792 6.98983 22.559 9.42559 24.6888L9.08812 24.8762C7.86574 25.4837 3.2252 27.9134 2.06281 30.4782C0.75044 33.3879 2.28029 35.4727 3.28369 35.7577C6.41838 36.6276 9.62657 35.0602 11.3514 32.488C13.0762 29.9157 12.8662 26.5561 12.0713 25.0262C12.0638 25.0037 12.0488 24.9887 12.0413 24.9662C12.9412 24.4332 13.8487 23.9132 14.7636 23.4064C14.4636 24.2163 14.2461 25.1912 14.1336 26.6011C13.9986 28.2509 14.6811 30.3882 15.566 31.2281C15.9559 31.5956 16.4269 31.6031 16.7209 31.6031C17.7558 31.6031 18.2207 30.7482 18.7382 29.7283C19.3756 28.4834 19.9381 27.036 19.9381 27.036C19.9381 27.036 19.2331 30.9506 21.1604 30.9506C21.8654 30.9506 22.5703 30.0432 22.8853 29.5783V29.5858C22.8853 29.5858 22.9003 29.5558 22.9378 29.4958C23.0128 29.3833 23.0502 29.3158 23.0502 29.3158V29.2933C23.3352 28.8058 23.9577 27.6885 24.8951 25.8436C26.1099 23.4589 27.2708 20.4817 27.2708 20.4817C27.3833 21.1356 27.5393 21.782 27.7358 22.4165C27.9458 23.1289 28.3882 23.9088 28.7407 24.6663C28.4557 25.0562 28.2832 25.2812 28.2832 25.2812C28.2832 25.2872 28.2862 25.2917 28.2907 25.2962C28.0658 25.5962 27.8108 25.9186 27.5483 26.2336C26.5899 27.3735 25.4485 28.6784 25.2985 29.0533C25.1185 29.4958 25.1635 29.8257 25.5085 30.0807C25.7635 30.2757 26.2134 30.3057 26.6859 30.2682C27.5483 30.2082 28.1557 29.9982 28.4482 29.8632C28.9877 29.67 29.4975 29.4024 29.9631 29.0683C30.9005 28.3784 31.4704 27.3885 31.4179 26.0836C31.3879 25.3637 31.1554 24.6438 30.8705 23.9688C30.953 23.8488 31.043 23.7213 31.1255 23.5939C32.1014 22.1377 32.9807 20.6191 33.7577 19.0478C33.8702 19.7017 34.0247 20.3482 34.2226 20.9826C34.4026 21.5901 34.7551 22.2575 35.0776 22.9099C33.6827 24.0423 32.8203 25.3547 32.5218 26.2171C31.9669 27.8144 32.4018 28.5344 33.2192 28.6994C33.5867 28.7744 34.1117 28.6019 34.5016 28.4369C35.0806 28.2434 35.6265 27.9629 36.12 27.6045C37.0574 26.9145 37.9648 25.9471 37.9033 24.6348C37.8808 24.0423 37.7158 23.4499 37.4983 22.8799C38.6757 22.385 40.2056 22.115 42.1554 22.34C46.331 22.8274 47.1484 25.4372 46.9909 26.5246C46.8334 27.612 45.956 28.2194 45.6635 28.3994C45.3711 28.5794 45.2811 28.6469 45.3036 28.7819C45.3411 28.9768 45.476 28.9693 45.7235 28.9243C46.0685 28.8643 47.9133 28.0394 47.9958 26.0221C48.1158 23.4724 45.6635 20.6676 41.3214 20.6901L41.3184 20.6916ZM9.13312 31.5431C7.75325 33.0504 5.81994 33.6204 4.98752 33.1404C4.09511 32.6215 4.44758 30.4032 6.14841 28.7969C7.18331 27.8219 8.51818 26.922 9.40309 26.3671C9.60557 26.2471 9.89804 26.0671 10.258 25.8496C10.2873 25.8309 10.3173 25.8134 10.348 25.7971C10.4155 25.7521 10.4905 25.7147 10.5655 25.6697C11.1864 27.9494 10.588 29.9607 9.13312 31.5431ZM19.2091 24.6888C18.7292 25.8661 17.7183 28.8658 17.1018 28.7084C16.5769 28.5734 16.2544 26.2861 16.9968 24.0363C17.3718 22.9039 18.1667 21.5541 18.6392 21.0291C19.3966 20.1817 20.229 19.9117 20.424 20.2492C20.6865 20.6916 19.5091 23.9538 19.2091 24.6888ZM27.5333 28.6634C27.3308 28.7684 27.1433 28.8358 27.0534 28.7833C26.9859 28.7459 27.1358 28.6034 27.1358 28.6034C27.1358 28.6034 28.1782 27.486 28.5907 26.976C28.8307 26.6761 29.1082 26.3236 29.4081 25.9336C29.4081 25.9711 29.4156 26.0086 29.4156 26.0536C29.4066 27.396 28.1182 28.3034 27.5333 28.6634ZM33.9527 27.201C33.8027 27.096 33.8252 26.7436 34.3276 25.6487C34.5226 25.2212 34.9726 24.5013 35.7525 23.8113C35.841 24.0723 35.889 24.3453 35.895 24.6213C35.8875 26.3086 34.6801 26.9385 33.9527 27.201Z" fill="#99BB80" stroke="#99BB80" stroke-width="2" mask="url(#path-1-inside-1_89_1088)"/>
</svg>
