<svg width="10" height="10" viewBox="0 0 10 10" fill="none" xmlns="http://www.w3.org/2000/svg">
<path d="M9.6875 3.875C9.6875 4.02418 9.62824 4.16726 9.52275 4.27275C9.41726 4.37824 9.27418 4.4375 9.125 4.4375C8.97582 4.4375 8.83274 4.37824 8.72725 4.27275C8.62176 4.16726 8.5625 4.02418 8.5625 3.875V2.23438L5.77297 5.02391C5.6673 5.12958 5.52397 5.18894 5.37453 5.18894C5.22509 5.18894 5.08177 5.12958 4.97609 5.02391C4.87042 4.91823 4.81106 4.77491 4.81106 4.62547C4.81106 4.47603 4.87042 4.3327 4.97609 4.22703L7.76562 1.4375H6.125C5.97582 1.4375 5.83274 1.37824 5.72725 1.27275C5.62176 1.16726 5.5625 1.02418 5.5625 0.875C5.5625 0.725816 5.62176 0.582742 5.72725 0.477252C5.83274 0.371763 5.97582 0.3125 6.125 0.3125H9.125C9.27418 0.3125 9.41726 0.371763 9.52275 0.477252C9.62824 0.582742 9.6875 0.725816 9.6875 0.875V3.875ZM7.625 5C7.47582 5 7.33274 5.05926 7.22725 5.16475C7.12176 5.27024 7.0625 5.41332 7.0625 5.5625V8.5625H1.4375V2.9375H4.4375C4.58668 2.9375 4.72976 2.87824 4.83525 2.77275C4.94074 2.66726 5 2.52418 5 2.375C5 2.22582 4.94074 2.08274 4.83525 1.97725C4.72976 1.87176 4.58668 1.8125 4.4375 1.8125H1.25C1.00136 1.8125 0.762903 1.91127 0.587087 2.08709C0.411272 2.2629 0.3125 2.50136 0.3125 2.75V8.75C0.3125 8.99864 0.411272 9.2371 0.587087 9.41291C0.762903 9.58873 1.00136 9.6875 1.25 9.6875H7.25C7.49864 9.6875 7.7371 9.58873 7.91291 9.41291C8.08873 9.2371 8.1875 8.99864 8.1875 8.75V5.5625C8.1875 5.41332 8.12824 5.27024 8.02275 5.16475C7.91726 5.05926 7.77418 5 7.625 5Z" fill="#E8FBFD"/>
</svg>
